HIERARCHY
ROOT Hips
{
	OFFSET 0.00000 0.00000 0.00000
	CHANNELS 6 Xposition Yposition Zposition Zrotation Yrotation Xrotation 
	JOINT LHipJoint
	{
		OFFSET 0 0 0
		CHANNELS 3 Zrotation Yrotation Xrotation
		JOINT LeftUpLeg
		{
			OFFSET 1.36337 -1.57426 1.11036
			CHANNELS 3 Zrotation Yrotation Xrotation
			JOINT LeftLeg
			{
				OFFSET 2.38468 -6.55187 0.00000
				CHANNELS 3 Zrotation Yrotation Xrotation
				JOINT LeftFoot
				{
					OFFSET 2.37166 -6.51609 0.00000
					CHANNELS 3 Zrotation Yrotation Xrotation
					JOINT LeftToeBase
					{
						OFFSET 0.29078 -0.79891 2.01393
						CHANNELS 3 Zrotation Yrotation Xrotation
						End Site
						{
							OFFSET 0.00000 -0.00000 1.07924
						}
					}
				}
			}
		}
	}
	JOINT RHipJoint
	{
		OFFSET 0 0 0
		CHANNELS 3 Zrotation Yrotation Xrotation
		JOINT RightUpLeg
		{
			OFFSET -1.36349 -1.57426 1.11036
			CHANNELS 3 Zrotation Yrotation Xrotation
			JOINT RightLeg
			{
				OFFSET -2.29562 -6.30717 0.00000
				CHANNELS 3 Zrotation Yrotation Xrotation
				JOINT RightFoot
				{
					OFFSET -2.40985 -6.62100 0.00000
					CHANNELS 3 Zrotation Yrotation Xrotation
					JOINT RightToeBase
					{
						OFFSET -0.23197 -0.63733 1.92232
						CHANNELS 3 Zrotation Yrotation Xrotation
						End Site
						{
							OFFSET -0.00000 -0.00000 1.01562
						}
					}
				}
			}
		}
	}
	JOINT LowerBack
	{
		OFFSET 0 0 0
		CHANNELS 3 Zrotation Yrotation Xrotation
		JOINT Spine
		{
			OFFSET -0.08565 2.03602 -0.24562
			CHANNELS 3 Zrotation Yrotation Xrotation
			JOINT Spine1
			{
				OFFSET -0.00036 2.05693 0.00216
				CHANNELS 3 Zrotation Yrotation Xrotation
				JOINT Neck
				{
					OFFSET 0 0 0
					CHANNELS 3 Zrotation Yrotation Xrotation
					JOINT Neck1
					{
						OFFSET -0.03664 1.69515 0.31789
						CHANNELS 3 Zrotation Yrotation Xrotation
						JOINT Head
						{
							OFFSET 0.00932 1.70181 -0.46013
							CHANNELS 3 Zrotation Yrotation Xrotation
							End Site
							{
								OFFSET 0.01243 1.77620 -0.19377
							}
						}
					}
				}
				JOINT LeftShoulder
				{
					OFFSET 0 0 0
					CHANNELS 3 Zrotation Yrotation Xrotation
					JOINT LeftArm
					{
						OFFSET 3.74344 0.81315 -0.36647
						CHANNELS 3 Zrotation Yrotation Xrotation
						JOINT LeftForeArm
						{
							OFFSET 4.97185 -0.00000 -0.00000
							CHANNELS 3 Zrotation Yrotation Xrotation
							JOINT LeftHand
							{
								OFFSET 3.35811 -0.00000 0.00000
								CHANNELS 3 Zrotation Yrotation Xrotation
								JOINT LeftFingerBase
								{
									OFFSET 0 0 0
									CHANNELS 3 Zrotation Yrotation Xrotation
									JOINT LeftHandIndex1
									{
										OFFSET 0.62278 -0.00000 0.00000
										CHANNELS 3 Zrotation Yrotation Xrotation
										End Site
										{
											OFFSET 0.50210 -0.00000 0.00000
										}
									}
								}
								JOINT LThumb
								{
									OFFSET 0 0 0
									CHANNELS 3 Zrotation Yrotation Xrotation
									End Site
									{
										OFFSET 0.50976 -0.00000 0.50976
									}
								}
							}
						}
					}
				}
				JOINT RightShoulder
				{
					OFFSET 0 0 0
					CHANNELS 3 Zrotation Yrotation Xrotation
					JOINT RightArm
					{
						OFFSET -3.75385 0.50666 -0.06525
						CHANNELS 3 Zrotation Yrotation Xrotation
						JOINT RightForeArm
						{
							OFFSET -4.96493 -0.00000 -0.00000
							CHANNELS 3 Zrotation Yrotation Xrotation
							JOINT RightHand
							{
								OFFSET -3.34929 -0.00000 0.00000
								CHANNELS 3 Zrotation Yrotation Xrotation
								JOINT RightFingerBase
								{
									OFFSET 0 0 0
									CHANNELS 3 Zrotation Yrotation Xrotation
									JOINT RightHandIndex1
									{
										OFFSET -0.63804 -0.00000 0.00000
										CHANNELS 3 Zrotation Yrotation Xrotation
										End Site
										{
											OFFSET -0.51441 -0.00000 0.00000
										}
									}
								}
								JOINT RThumb
								{
									OFFSET 0 0 0
									CHANNELS 3 Zrotation Yrotation Xrotation
									End Site
									{
										OFFSET -0.52226 -0.00000 0.52226
									}
								}
							}
						}
					}
				}
			}
		}
	}
}
MOTION
Frames: 10
Frame Time: .0083333
-31.016 16.0997 1.1166 0 0 0 0 0 0 -21 0 0 0 0 0 0 0 0 0 0 0 0 0 0 21 0 0 0 0 0 0 0 0 0 0 0 0 0 0 0 0 0 0 0 0 0 0 -16 0 0 21 0 0 11 0 0 0 -8 0 0 0 0 0 0 0 0 0 0 0 0 0 0 0 0 0 0 0 0 8 0 0 0 0 0 0 0 0 0 0 0 0 0 0 0 0 0
-31.0160 16.0997 1.1166 69.7229 84.4345 69.2463 0.0000 0.0000 0.0000 -26.3147 -3.4291 -4.3346 2.7555 10.2883 29.9153 1.9826 6.9209 -29.8152 0.0185 0.8786 2.4148 0.0000 0.0000 0.0000 11.9570 -2.0418 -12.3244 -3.7506 -11.8209 35.1012 -1.9499 1.4389 -26.0155 -0.0374 -1.2483 3.4323 -8.8453 0.9355 0.7351 0.5902 1.5127 5.0802 5.6313 0.4126 4.6760 -4.7427 0.6506 -18.7312 2.4502 2.7805 34.1879 2.4368 1.2326 14.9252 -0.0000 0.0000 0.0000 -89.4004 -1.2485 8.7524 11.3512 -18.8245 -1.8877 -0.0000 -0.0000 25.5061 25.0493 -10.9902 -5.0915 -7.1250 0.0000 -0.0000 -1.4393 17.8829 0.9281 -0.0000 0.0000 0.0000 81.8033 -2.4264 21.5268 -18.3496 28.6026 -4.7154 0.0000 -0.0000 -15.9598 -10.8155 -29.5832 5.3879 7.1250 -0.0000 -0.0000 22.7230 -58.5313 -7.7752
-31.0574 16.1183 1.1062 55.7087 86.3745 55.5912 0.0000 0.0000 0.0000 -23.8867 -4.0652 -5.3188 2.9939 10.6852 31.2254 2.1527 6.4792 -30.6319 0.0369 1.2391 3.4069 0.0000 0.0000 0.0000 14.2667 -2.9696 -13.3899 -3.7513 -11.8219 35.1049 -1.7743 1.7214 -24.7121 -0.0260 -1.0412 2.8621 -6.8624 0.8511 1.2885 0.9976 1.2746 4.7115 4.9174 0.3968 4.0098 -4.2766 0.9260 -18.4582 2.1701 3.1001 33.9971 2.2820 1.3925 14.7721 0.0000 0.0000 0.0000 -88.8480 -0.7281 11.8291 11.9971 -19.8003 -2.1013 -0.0000 -0.0000 22.6427 18.8845 -10.6633 -3.6218 -7.1250 0.0000 -0.0000 -5.7744 18.7569 3.6294 0.0000 0.0000 0.0000 81.8199 -3.1779 23.3409 -19.0852 29.5244 -5.0728 0.0000 -0.0000 -16.3346 -10.1851 -29.3717 5.0358 7.1250 -0.0000 -0.0000 23.2065 -58.2001 -7.7652
-31.1009 16.1306 1.0948 22.7368 87.7448 22.9529 0.0000 0.0000 0.0000 -21.5346 -4.6943 -6.3346 3.2611 11.1061 32.6387 2.3022 6.0341 -31.3029 0.0458 1.3816 3.7995 0.0000 0.0000 0.0000 16.4056 -3.8122 -14.4731 -3.7879 -11.8727 35.2830 -1.6103 2.2502 -23.3802 -0.0093 -0.6243 1.7154 -4.8928 0.7346 1.7706 1.3632 1.0478 4.4443 4.1710 0.3672 3.4924 -3.8390 1.1697 -18.3332 1.8628 3.4001 33.8413 2.1222 1.5335 14.6747 -0.0000 0.0000 0.0000 -88.3758 -0.4686 14.4125 12.5926 -20.6874 -2.3074 -0.0000 -0.0000 20.8013 12.9053 -10.0690 -2.2940 -7.1250 0.0000 -0.0000 -10.0106 19.7332 6.1363 -0.0000 0.0000 0.0000 82.0563 -3.3830 24.2200 -19.4554 29.9806 -5.2565 0.0000 -0.0000 -15.8882 -9.6720 -28.8727 4.7045 7.1250 -0.0000 -0.0000 23.3570 -57.6349 -7.4968
-31.1384 16.1432 1.0861 -30.8089 87.7071 -30.2565 0.0000 0.0000 0.0000 -19.1951 -5.1680 -7.2829 3.4867 11.4441 33.7928 2.4076 5.5666 -31.6922 0.0331 1.1744 3.2288 0.0000 0.0000 0.0000 18.4046 -4.7246 -15.6702 -3.8614 -11.9737 35.6391 -1.4107 2.8758 -21.7004 -0.0002 -0.0829 0.2277 -2.9719 0.5539 2.0786 1.7600 0.7769 4.2393 3.4899 0.2987 3.1397 -3.6540 1.3931 -18.1826 1.7016 3.7048 33.6692 2.0664 1.6657 14.5579 0.0000 -0.0000 0.0000 -87.9603 -0.3224 15.3413 13.0945 -21.4255 -2.4877 -0.0000 -0.0000 20.7538 6.7849 -9.6054 -1.1373 -7.1250 0.0000 -0.0000 -14.3464 20.4357 8.7076 0.0000 -0.0000 0.0000 82.3583 -3.2702 24.3967 -19.5868 30.1413 -5.3223 0.0000 -0.0000 -15.0780 -8.9122 -28.6108 4.2944 7.1250 -0.0000 -0.0000 23.9298 -57.2365 -7.4611
-31.1791 16.1667 1.0802 -71.6587 85.1034 -70.0298 0.0000 0.0000 0.0000 -14.9694 -5.3387 -9.3212 3.6753 11.7153 34.7320 2.3793 4.7718 -31.1344 0.0118 0.7004 1.9247 0.0000 0.0000 0.0000 22.1247 -5.3208 -17.7955 -3.9821 -12.1365 36.2165 -1.2100 2.9503 -20.0256 -0.0088 0.6043 -1.6607 0.3436 0.2193 1.7343 2.6267 0.3173 3.7713 2.5145 0.1624 2.8895 -3.5158 1.6668 -17.8827 1.5324 4.1029 33.4989 2.0282 1.8346 14.4067 -0.0000 -0.0000 0.0000 -87.7740 0.3705 22.6513 13.8494 -22.5190 -2.7702 -0.0000 -0.0000 4.5746 6.0765 -3.8169 -0.4060 -7.1250 0.0000 -0.0000 -15.4442 26.0744 7.3378 -0.0000 -0.0000 0.0000 82.5401 -3.2755 24.6805 -19.7569 30.3483 -5.4080 0.0000 -0.0000 -14.3468 -8.5007 -28.6167 4.0946 7.1250 -0.0000 -0.0000 24.3449 -57.1559 -7.5529
-31.2027 16.1774 1.0679 -67.1864 84.4901 -65.5997 0.0000 0.0000 0.0000 -14.5336 -5.2715 -9.5637 3.7652 11.8412 35.1725 2.4052 5.0991 -31.4468 0.0074 0.5539 1.5220 0.0000 0.0000 0.0000 22.2259 -5.7710 -18.8856 -4.1881 -12.4066 37.1860 -1.0759 3.5214 -18.7456 -0.1181 2.2151 -6.1006 0.6457 0.2488 2.2129 2.6439 0.3701 3.6206 2.3574 0.1989 2.4638 -3.2698 1.9621 -17.4097 1.2427 4.5305 33.2526 1.9204 2.0179 14.1917 0.0000 0.0000 0.0000 -87.7036 0.3118 25.5727 14.1102 -22.8920 -2.8708 -0.0000 0.0000 -3.0189 11.9434 -2.1046 -0.4451 -7.1250 0.0000 -0.0000 -11.2414 27.7678 4.7952 0.0000 0.0000 0.0000 82.7213 -3.4067 24.9637 -19.9433 30.5740 -5.5025 0.0000 -0.0000 -13.5866 -8.2977 -28.3300 3.9591 7.1250 -0.0000 -0.0000 24.3403 -56.8546 -7.3708
-31.2050 16.1902 1.0541 -62.1970 84.0982 -60.7464 0.0000 0.0000 0.0000 -14.4908 -5.1685 -9.4356 3.8000 11.8894 35.3417 2.4195 5.4872 -31.7227 0.0123 0.7151 1.9653 0.0000 0.0000 0.0000 21.8877 -6.2836 -19.7996 -4.4169 -12.6955 38.2389 -1.0145 4.4789 -18.0656 -0.5487 4.7456 -13.1843 0.8332 0.3516 2.4524 2.5434 0.5154 3.5801 2.1454 0.2777 2.2844 -3.0005 2.1436 -17.0186 0.8938 4.8017 32.9829 1.7605 2.1284 13.9972 0.0000 0.0000 0.0000 -87.5843 -0.2011 25.3819 13.9648 -22.6844 -2.8145 -0.0000 0.0000 -2.9979 12.1040 -2.4630 -0.5280 -7.1250 0.0000 -0.0000 -11.0847 27.4083 4.8218 0.0000 0.0000 0.0000 82.9509 -3.5165 25.0458 -20.0960 30.7578 -5.5803 0.0000 -0.0000 -13.1964 -7.6343 -27.7985 3.5769 7.1250 -0.0000 -0.0000 24.6209 -56.2392 -7.0887
-31.2014 16.1998 1.0478 -59.1944 83.7117 -57.8798 0.0000 0.0000 0.0000 -14.3742 -5.0225 -9.0887 3.7602 11.8343 35.1483 2.4251 5.6075 -31.8162 0.0364 1.2317 3.3866 0.0000 0.0000 0.0000 21.5074 -6.5417 -20.5077 -4.6654 -12.9967 39.3562 -0.9692 5.6806 -17.5720 -0.9193 6.1088 -17.1004 1.0584 0.4155 2.6631 2.5138 0.6096 3.5804 1.9858 0.3314 2.1662 -2.8635 2.2597 -17.0934 0.6202 5.0270 32.9868 1.6666 2.2024 14.0251 -0.0000 -0.0000 0.0000 -87.5330 -0.5636 25.0936 14.0023 -22.7380 -2.8290 -0.0000 0.0000 -2.6779 12.1236 -2.6107 -0.5606 -7.1250 0.0000 -0.0000 -11.0559 27.2600 4.8482 -0.0000 -0.0000 0.0000 83.0272 -3.5789 25.2404 -20.2704 30.9667 -5.6698 0.0000 -0.0000 -13.2670 -6.8927 -27.3898 3.1830 7.1250 -0.0000 -0.0000 25.0652 -55.7233 -6.9073
-31.2021 16.1994 1.0499 -57.5620 83.4491 -56.3693 0.0000 0.0000 0.0000 -14.2618 -4.9050 -8.8146 3.7251 11.7854 34.9769 2.4892 5.5403 -32.1583 0.0304 1.1260 3.0955 0.0000 0.0000 0.0000 21.0244 -6.4884 -20.7701 -4.8370 -13.1978 40.1136 -0.9193 6.8642 -17.1145 -0.7694 5.6009 -15.6307 1.1669 0.4102 3.0162 2.5494 0.6158 3.4979 1.9569 0.3372 1.8837 -2.9510 2.3714 -17.3616 0.5716 5.2706 33.2280 1.7167 2.2824 14.1867 -0.0000 -0.0000 0.0000 -87.6037 -0.7374 24.6938 14.1052 -22.8849 -2.8689 -0.0000 0.0000 -2.1870 12.3108 -2.5795 -0.5627 -7.1250 0.0000 -0.0000 -10.9169 27.2909 4.7771 -0.0000 -0.0000 0.0000 82.9776 -3.6986 25.4003 -20.4070 31.1296 -5.7403 0.0000 -0.0000 -13.4268 -6.3549 -27.2049 2.9148 7.1250 -0.0000 -0.0000 25.4626 -55.4520 -6.8552
